<svg width="21" height="22" viewBox="0 0 21 22" fill="none" xmlns="http://www.w3.org/2000/svg">
<path opacity="0.901274" fill-rule="evenodd" clip-rule="evenodd" d="M5.38461 0.752153C5.12112 0.436784 4.61209 0.557816 4.51693 0.95846L3.45075 5.44758C3.37326 5.77381 3.63054 6.08269 3.96396 6.06371L8.56217 5.80202C8.97231 5.77867 9.18057 5.29548 8.91664 4.97957L7.80079 3.64404C8.63805 3.35669 9.52587 3.20661 10.4375 3.20661C14.9363 3.20661 18.5833 6.86932 18.5833 11.3875C18.5833 15.9057 14.9363 19.5684 10.4375 19.5684C5.93868 19.5684 2.29167 15.9057 2.29167 11.3875C2.29167 10.629 2.39394 9.88613 2.59336 9.17213L0.74792 8.65226C0.504945 9.5222 0.375 10.4396 0.375 11.3875C0.375 16.9688 4.88013 21.4933 10.4375 21.4933C15.9949 21.4933 20.5 16.9688 20.5 11.3875C20.5 5.80622 15.9949 1.28169 10.4375 1.28169C9.0396 1.28169 7.70828 1.56797 6.49849 2.08533L5.38461 0.752153Z" fill="#CCCCCC"/>
</svg>
