<svg width="28" height="28" viewBox="0 0 28 28" fill="none" xmlns="http://www.w3.org/2000/svg">
<path fill-rule="evenodd" clip-rule="evenodd" d="M4.375 10.0547L13.0292 15.5206C13.1224 15.5795 13.2201 15.622 13.3195 15.649V26.2499L4.99222 20.8588C4.60965 20.6111 4.375 20.1609 4.375 19.6746L4.375 10.0547Z" fill="#B0B0B0"/>
<path fill-rule="evenodd" clip-rule="evenodd" d="M24.4997 9.90942V19.6746C24.4997 20.1609 24.2651 20.6111 23.8825 20.8588L15.5552 26.25V15.5562C15.5755 15.5451 15.5956 15.5332 15.6155 15.5207L24.4997 9.90942Z" fill="#DADADA"/>
<path opacity="0.499209" fill-rule="evenodd" clip-rule="evenodd" d="M4.64758 7.40185C4.75329 7.25582 4.88671 7.1324 5.04227 7.04176L13.847 1.91152C14.2167 1.69616 14.66 1.69616 15.0297 1.91152L23.8344 7.04176C23.9543 7.11163 24.0611 7.20098 24.1522 7.30515L14.4987 13.4023C14.4352 13.4424 14.3767 13.4882 14.3233 13.5389C14.27 13.4882 14.2115 13.4424 14.148 13.4023L4.64758 7.40185Z" fill="#DADADA"/>
</svg>
