<svg width="24" height="25" viewBox="0 0 24 25" fill="none" xmlns="http://www.w3.org/2000/svg">
<path d="M20.252 21.5001C20.1535 21.5003 20.056 21.4809 19.965 21.4432C19.874 21.4054 19.7914 21.3501 19.7219 21.2803L3.22189 4.78025C3.08718 4.63845 3.01318 4.44964 3.01569 4.25407C3.01819 4.0585 3.09699 3.87164 3.23529 3.73334C3.3736 3.59504 3.56045 3.51624 3.75602 3.51373C3.95159 3.51123 4.14041 3.58522 4.2822 3.71994L20.7822 20.2199C20.887 20.3248 20.9584 20.4584 20.9873 20.6039C21.0162 20.7493 21.0014 20.9001 20.9446 21.0371C20.8879 21.1741 20.7918 21.2912 20.6685 21.3736C20.5453 21.456 20.4003 21.5 20.252 21.5001Z" fill="#21272A"/>
<path d="M11.985 18.4999C10.0402 18.4999 8.16469 17.9243 6.41062 16.789C4.81359 15.7577 3.37593 14.2807 2.25281 12.5233V12.5196C3.1875 11.1804 4.21125 10.0479 5.31094 9.13475C5.32088 9.12644 5.329 9.11615 5.33477 9.10453C5.34053 9.09292 5.34383 9.08024 5.34445 9.06729C5.34506 9.05433 5.34299 9.0414 5.33835 9.02929C5.33371 9.01718 5.32661 9.00617 5.3175 8.99694L4.38375 8.0646C4.36715 8.04787 4.34487 8.038 4.32133 8.03696C4.29779 8.03591 4.27472 8.04377 4.25672 8.05897C3.08859 9.04335 2.00437 10.2508 1.01859 11.6646C0.84899 11.908 0.755584 12.1964 0.750243 12.493C0.744901 12.7896 0.827865 13.0812 0.988591 13.3305C2.22656 15.2679 3.81984 16.8996 5.59547 18.0485C7.59468 19.3437 9.74625 19.9999 11.985 19.9999C13.1934 19.9962 14.3933 19.797 15.5381 19.4102C15.5532 19.4051 15.5668 19.3962 15.5775 19.3844C15.5882 19.3726 15.5957 19.3582 15.5993 19.3427C15.6029 19.3271 15.6025 19.3109 15.5981 19.2956C15.5937 19.2803 15.5855 19.2663 15.5742 19.2551L14.5627 18.2435C14.5394 18.2208 14.5106 18.2045 14.4791 18.1963C14.4476 18.1881 14.4145 18.1882 14.3831 18.1966C13.5997 18.3984 12.794 18.5003 11.985 18.4999Z" fill="#21272A"/>
<path d="M23.0115 11.6844C21.7712 9.76625 20.162 8.13688 18.3583 6.97203C16.3628 5.68203 14.1597 5 11.9875 5C10.7919 5.00212 9.60514 5.20543 8.477 5.60141C8.46197 5.60664 8.44852 5.61561 8.43791 5.62747C8.42731 5.63934 8.4199 5.65371 8.41638 5.66923C8.41286 5.68475 8.41336 5.70091 8.41781 5.71619C8.42227 5.73147 8.43054 5.74536 8.44185 5.75656L9.452 6.76672C9.47552 6.78984 9.50471 6.80634 9.53665 6.81457C9.56858 6.8228 9.60212 6.82246 9.63388 6.81359C10.4012 6.60602 11.1926 6.50058 11.9875 6.5C13.8948 6.5 15.7647 7.08266 17.5445 8.23438C19.1715 9.28438 20.6261 10.76 21.752 12.5C21.7528 12.5011 21.7533 12.5024 21.7533 12.5037C21.7533 12.5051 21.7528 12.5064 21.752 12.5075C20.9347 13.7942 19.9205 14.9446 18.7464 15.9167C18.7363 15.925 18.7281 15.9353 18.7222 15.9469C18.7164 15.9586 18.713 15.9713 18.7124 15.9843C18.7117 15.9973 18.7138 16.0103 18.7184 16.0225C18.7231 16.0347 18.7302 16.0457 18.7393 16.055L19.6722 16.9873C19.6887 17.004 19.7108 17.0139 19.7343 17.015C19.7577 17.0161 19.7807 17.0084 19.7987 16.9934C21.0522 15.9381 22.1372 14.6975 23.0162 13.3147C23.1716 13.071 23.2538 12.7878 23.2529 12.4988C23.2521 12.2098 23.1683 11.9272 23.0115 11.6844Z" fill="#21272A"/>
<path d="M11.9983 8C11.6612 7.99982 11.3252 8.03756 10.9966 8.1125C10.98 8.11595 10.9646 8.12383 10.9521 8.13531C10.9397 8.14679 10.9305 8.16144 10.9257 8.1777C10.9209 8.19395 10.9206 8.21121 10.9248 8.22763C10.929 8.24405 10.9376 8.25901 10.9497 8.27094L16.2273 13.5472C16.2393 13.5592 16.2542 13.5678 16.2707 13.5721C16.2871 13.5763 16.3043 13.576 16.3206 13.5712C16.3368 13.5663 16.3515 13.5572 16.363 13.5447C16.3745 13.5323 16.3823 13.5169 16.3858 13.5003C16.536 12.8413 16.5359 12.1568 16.3854 11.4979C16.2348 10.8389 15.9378 10.2223 15.5163 9.69385C15.0947 9.16542 14.5596 8.73874 13.9506 8.4455C13.3415 8.15226 12.6742 7.99999 11.9983 8Z" fill="#21272A"/>
<path d="M7.77189 11.4529C7.75996 11.4408 7.745 11.4322 7.72858 11.428C7.71216 11.4238 7.6949 11.4241 7.67864 11.4289C7.66239 11.4337 7.64774 11.4428 7.63626 11.4553C7.62478 11.4678 7.61689 11.4831 7.61345 11.4997C7.44345 12.2424 7.4648 13.0161 7.67549 13.7482C7.88617 14.4804 8.2793 15.1471 8.81802 15.6858C9.35674 16.2245 10.0234 16.6176 10.7556 16.8283C11.4877 17.039 12.2614 17.0604 13.0041 16.8904C13.0207 16.8869 13.036 16.879 13.0485 16.8676C13.061 16.8561 13.0701 16.8414 13.0749 16.8252C13.0797 16.8089 13.08 16.7917 13.0758 16.7752C13.0716 16.7588 13.063 16.7438 13.0509 16.7319L7.77189 11.4529Z" fill="#21272A"/>
</svg>
