<svg width="72" height="73" viewBox="0 0 72 73" fill="none" xmlns="http://www.w3.org/2000/svg">
<path d="M60.1817 71.4474L32.89 44.1077C31.3408 44.8235 29.761 45.3871 28.1504 45.7984C26.5399 46.2097 24.8291 46.4154 23.0182 46.4154C16.6614 46.4154 11.2527 44.1851 6.79219 39.7246C2.33177 35.2642 0.101562 29.8556 0.101562 23.4987C0.101562 21.6931 0.301876 19.9557 0.702501 18.2863C1.10313 16.617 1.68806 15.0158 2.45729 13.4827L17.1849 28.0499L27.5695 17.6654L13.1624 3.09807C14.6955 2.32884 16.27 1.71717 17.8859 1.26307C19.5019 0.809045 21.2127 0.582031 23.0182 0.582031C29.375 0.582031 34.7837 2.81227 39.2442 7.27276C43.7047 11.7332 45.9349 17.1418 45.9349 23.4987C45.9349 25.4164 45.7426 27.1806 45.3579 28.7912C44.9733 30.4018 44.3964 31.9282 43.6272 33.3705L70.9669 60.6621C71.5865 61.2818 71.8963 62.0484 71.8963 62.9618C71.8963 63.8753 71.5865 64.6419 70.9669 65.2615L64.6207 71.6077C64.0011 72.2273 63.2612 72.5104 62.4011 72.457C61.5411 72.4036 60.8013 72.0671 60.1817 71.4474ZM62.4814 67.8015L67.297 62.9859L38.4669 34.1558C39.5567 32.66 40.3793 30.992 40.9349 29.1517C41.4905 27.3114 41.7682 25.4271 41.7682 23.4987C41.7682 18.4239 39.8038 13.874 35.8748 9.84891C31.9458 5.82377 26.9071 4.19314 20.7586 4.95703L31.1912 15.3897C31.8109 16.0094 32.1475 16.7412 32.2009 17.5853C32.2543 18.4293 31.9712 19.1611 31.3516 19.7808L19.4605 31.6718C18.8409 32.2915 18.0823 32.6013 17.1849 32.6013C16.2875 32.6013 15.5289 32.2915 14.9092 31.6718L4.47656 21.2391C3.87295 27.9752 5.61038 33.1609 9.68886 36.796C13.7674 40.4311 18.2105 42.2487 23.0182 42.2487C24.8772 42.2487 26.7228 41.9843 28.555 41.4555C30.3873 40.9266 32.086 40.0986 33.6513 38.9714L62.4814 67.8015Z" fill="#DC2A1F"/>
</svg>
