<svg width="77" height="68" viewBox="0 0 77 68" fill="none" xmlns="http://www.w3.org/2000/svg">
<path d="M72.1672 29.6319V61.2529C72.1672 63.0748 71.557 64.5959 70.3365 65.8164C69.116 67.0369 67.5948 67.6471 65.7729 67.6471H11.2697C9.4479 67.6471 7.92675 67.0369 6.70626 65.8164C5.48578 64.5959 4.87554 63.0748 4.87554 61.2529V29.4797C3.20591 28.2465 1.98414 26.6302 1.21022 24.6307C0.436363 22.6313 0.41987 20.4973 1.16074 18.2288L5.01249 5.53178C5.54027 3.91797 6.39158 2.6518 7.56641 1.73327C8.74124 0.814735 10.1939 0.355469 11.9243 0.355469H64.9661C66.6966 0.355469 68.1454 0.785541 69.3127 1.64569C70.4798 2.5059 71.3349 3.7505 71.878 5.37949L75.8819 18.2288C76.6228 20.4973 76.6063 22.649 75.8324 24.684C75.0586 26.719 73.8368 28.3683 72.1672 29.6319ZM47.2297 28.0638C49.7721 28.0638 51.6701 27.3521 52.9236 25.9286C54.177 24.5051 54.7048 23.0347 54.5069 21.5173L51.8731 4.3138H40.5005V20.9388C40.5005 22.8824 41.1653 24.5558 42.4949 25.9591C43.8246 27.3622 45.4028 28.0638 47.2297 28.0638ZM29.4172 28.0638C31.5435 28.0638 33.2626 27.3622 34.5744 25.9591C35.8863 24.5558 36.5422 22.8824 36.5422 20.9388V4.3138H25.1696L22.5357 21.8218C22.3734 23.0499 22.9101 24.3972 24.1458 25.8639C25.3815 27.3305 27.1386 28.0638 29.4172 28.0638ZM11.8026 28.0638C13.5483 28.0638 15.0314 27.4701 16.2519 26.2826C17.4724 25.0951 18.2323 23.6132 18.5318 21.837L21.0134 4.3138H11.9243C11.0617 4.3138 10.3766 4.5041 9.86907 4.88469C9.36161 5.26535 8.98102 5.83628 8.72729 6.59746L5.07345 19.0967C4.42389 21.1773 4.70173 23.192 5.90698 25.1407C7.11223 27.0894 9.07744 28.0638 11.8026 28.0638ZM65.2401 28.0638C67.61 28.0638 69.5029 27.1402 70.9187 25.293C72.3346 23.4457 72.6848 21.3803 71.9693 19.0967L68.1175 6.44517C67.8637 5.68398 67.4831 5.13845 66.9756 4.80859C66.4682 4.47873 65.7831 4.3138 64.9204 4.3138H56.0294L58.511 21.837C58.8103 23.6132 59.5703 25.0951 60.7908 26.2826C62.0112 27.4701 63.4944 28.0638 65.2401 28.0638ZM11.2697 63.6888H65.7729C66.4834 63.6888 67.0671 63.4604 67.5238 63.0037C67.9805 62.547 68.2089 61.9634 68.2089 61.2529V31.5197C67.676 31.7024 67.1698 31.8318 66.6903 31.9079C66.2106 31.9841 65.7273 32.0221 65.2401 32.0221C63.4589 32.0221 61.892 31.6745 60.5396 30.9793C59.1872 30.284 57.902 29.1752 56.684 27.6527C55.6487 28.9418 54.3725 29.9922 52.8551 30.8042C51.3377 31.6161 49.493 32.0221 47.321 32.0221C45.7428 32.0221 44.2419 31.6542 42.8184 30.9184C41.395 30.1825 39.9626 29.094 38.5214 27.6527C37.1968 29.094 35.729 30.1825 34.1177 30.9184C32.5065 31.6542 30.9701 32.0221 29.5085 32.0221C27.8491 32.0221 26.2315 31.705 24.6557 31.0707C23.08 30.4363 21.6985 29.297 20.511 27.6527C18.5673 29.5964 16.8685 30.8106 15.4146 31.2952C13.9606 31.7798 12.7566 32.0221 11.8026 32.0221C11.3154 32.0221 10.8244 31.9841 10.3296 31.9079C9.83483 31.8318 9.33625 31.7024 8.83387 31.5197V61.2529C8.83387 61.9634 9.06223 62.547 9.51896 63.0037C9.97568 63.4604 10.5593 63.6888 11.2697 63.6888Z" fill="#DC2A1F"/>
</svg>
