<svg width="80" height="64" viewBox="0 0 80 64" fill="none" xmlns="http://www.w3.org/2000/svg">
<path d="M2.49946 63.25C1.50051 63.25 0.848806 62.7759 0.544361 61.8277C0.239847 60.8795 0.485576 60.109 1.28155 59.516L37.9161 32V23.6667C37.9161 23.0737 38.1111 22.5782 38.501 22.1803C38.891 21.7823 39.3558 21.5833 39.8953 21.5833C42.235 21.6528 44.2262 20.8662 45.8688 19.2235C47.5115 17.5809 48.3328 15.5897 48.3328 13.25C48.3328 10.9797 47.5115 9.02326 45.8688 7.38062C44.2262 5.73799 42.2697 4.91667 39.9995 4.91667C37.7292 4.91667 35.7727 5.73799 34.1301 7.38062C32.4874 9.02326 31.6661 10.9797 31.6661 13.25H27.4995C27.4995 9.75639 28.7094 6.79965 31.1293 4.37979C33.5491 1.95993 36.5059 0.75 39.9995 0.75C43.4931 0.75 46.4498 1.93857 48.8697 4.31573C51.2895 6.69281 52.4995 9.60146 52.4995 13.0417C52.4995 16.1453 51.5312 18.879 49.5948 21.2428C47.6584 23.6066 45.1544 25.0342 42.0828 25.5256V32L78.7174 59.516C79.5134 60.109 79.7591 60.8795 79.4546 61.8277C79.1501 62.7759 78.4984 63.25 77.4995 63.25H2.49946ZM8.74946 59.0833H71.2495L39.9995 35.6058L8.74946 59.0833Z" fill="#DC2A1F"/>
</svg>
