<svg width="40" height="33" viewBox="0 0 40 33" fill="none" xmlns="http://www.w3.org/2000/svg">
<path fill-rule="evenodd" clip-rule="evenodd" d="M19.9996 6.82304C22.0003 3.96436 25.4263 0.136475 29.6397 0.136475C36.1686 0.136475 39.6928 4.79641 39.6358 10.2331C39.5358 19.7628 26.4725 28.9603 19.9939 32.8637C13.5152 28.9603 0.464315 19.7628 0.364389 10.2331C0.307383 4.79659 3.83152 0.136196 10.3604 0.136475C14.5736 0.136655 17.9996 3.96372 19.9996 6.82304ZM19.994 29.349C22.9997 27.4361 26.8306 24.7075 30.0835 21.542C34.0581 17.6739 36.578 13.7232 36.6149 10.2023C36.6369 8.11154 35.9708 6.34653 34.8646 5.13918C33.7959 3.97277 32.1243 3.11168 29.6397 3.11168C28.4877 3.11168 27.2361 3.63759 25.9014 4.71167C24.5765 5.7778 23.4062 7.19805 22.4869 8.51156L19.9988 12.0665L17.5118 8.51086C16.5931 7.19749 15.4231 5.77744 14.0985 4.7115C12.764 3.63762 11.5124 3.11173 10.3603 3.11168C7.87582 3.11157 6.20428 3.97265 5.13558 5.13911C4.02936 6.34653 3.36327 8.11163 3.3852 10.2023C3.42213 13.7242 5.94019 17.6752 9.9113 21.5428C13.1614 24.7081 16.9895 27.4364 19.994 29.349Z" fill="#DC2A1F"/>
</svg>
