<svg width="16" height="19" viewBox="0 0 16 19" fill="none" xmlns="http://www.w3.org/2000/svg">
<path d="M8.26642 1.34009C8.26642 3.20776 7.18849 4.82902 5.60833 5.64044C2.31679 7.64916 0.333374 9.59062 0.333374 12.5025C0.333374 15.4906 1.58299 17.5309 4.37177 18.375C3.74713 17.7068 3.3085 16.7524 3.3085 15.4144C3.3085 12.4067 5.45894 9.8905 8.33711 9.25838C8.29104 9.52418 8.26704 9.79734 8.26704 10.076C8.26704 11.5511 8.93947 12.8725 10.0007 13.7626C10.8677 14.4898 11.2422 15.4144 11.2422 16.385C11.2422 16.9816 11.0337 17.6597 10.6343 18.2523C13.3205 17.1545 15.2084 14.5589 15.2084 11.5317C15.2084 9.59312 14.4342 7.83153 13.1718 6.52695C13.2068 6.73419 13.225 6.94697 13.225 7.1639C13.225 8.31008 12.7175 9.34025 11.9105 10.0509C12.121 9.28517 12.2332 8.48 12.2332 7.64916C12.2332 4.46436 10.5836 1.65668 8.07496 0C8.19964 0.425641 8.26642 0.875234 8.26642 1.34009Z" fill="#DC2A1F"/>
</svg>
