<svg width="18" height="19" viewBox="0 0 18 19" fill="none" xmlns="http://www.w3.org/2000/svg">
<path d="M8.09755 0.560428C8.50606 -0.121299 9.49394 -0.121298 9.90245 0.560428L11.0467 2.46998C11.285 2.86756 11.7553 3.06239 12.2049 2.94972L14.3643 2.40858C15.1352 2.21539 15.8337 2.91393 15.6405 3.68484L15.0994 5.84422C14.9867 6.29381 15.1816 6.76417 15.5792 7.00241L17.4887 8.14668C18.1704 8.5552 18.1704 9.54307 17.4887 9.95158L15.5792 11.0959C15.1816 11.3341 14.9867 11.8045 15.0994 12.254L15.6405 14.4134C15.8337 15.1843 15.1352 15.8829 14.3643 15.6897L12.2049 15.1485C11.7553 15.0359 11.285 15.2307 11.0467 15.6283L9.90245 17.5378C9.49394 18.2196 8.50606 18.2196 8.09755 17.5378L6.95328 15.6283C6.71504 15.2307 6.24468 15.0359 5.79509 15.1485L3.63571 15.6897C2.86479 15.8829 2.16626 15.1843 2.35945 14.4134L2.90059 12.254C3.01325 11.8045 2.81842 11.3341 2.42085 11.0959L0.511295 9.95158C-0.170432 9.54307 -0.170431 8.5552 0.511295 8.14668L2.42085 7.00241C2.81842 6.76417 3.01325 6.29381 2.90059 5.84422L2.35945 3.68484C2.16626 2.91392 2.86479 2.21539 3.63571 2.40858L5.79509 2.94972C6.24468 3.06239 6.71504 2.86756 6.95328 2.46998L8.09755 0.560428Z" fill="#DC2A1F"/>
</svg>
