<svg width="86" height="60" viewBox="0 0 86 60" fill="none" xmlns="http://www.w3.org/2000/svg">
<path d="M16.6986 59.6462C13.6663 59.6462 11.0952 58.5867 8.98516 56.4678C6.87509 54.3488 5.82005 51.7758 5.82005 48.7487H0.0507812V7.56276C0.0507812 5.64505 0.693142 4.04384 1.97786 2.75911C3.26259 1.47439 4.86384 0.832031 6.78161 0.832031H61.9098V15.8961H71.5252L85.9483 35.2871V48.7487H79.2175C79.2175 51.7758 78.1562 54.3488 76.0336 56.4678C73.911 58.5867 71.3335 59.6462 68.3012 59.6462C65.2689 59.6462 62.6977 58.5867 60.5877 56.4678C58.4776 54.3488 57.4226 51.7758 57.4226 48.7487H27.615C27.615 51.7936 26.5536 54.371 24.431 56.4811C22.3084 58.5912 19.731 59.6462 16.6986 59.6462ZM16.7174 55.4794C18.5924 55.4794 20.183 54.8264 21.4891 53.5204C22.7952 52.2143 23.4483 50.6237 23.4483 48.7487C23.4483 46.8737 22.7952 45.2832 21.4891 43.9771C20.183 42.671 18.5924 42.018 16.7174 42.018C14.8424 42.018 13.2519 42.671 11.9459 43.9771C10.6398 45.2832 9.98672 46.8737 9.98672 48.7487C9.98672 50.6237 10.6398 52.2143 11.9459 53.5204C13.2519 54.8264 14.8424 55.4794 16.7174 55.4794ZM4.21745 44.582H6.90984C7.50276 42.7444 8.71002 41.1632 10.5316 39.8385C12.3532 38.5137 14.4152 37.8513 16.7174 37.8513C18.913 37.8513 20.9483 38.5003 22.8233 39.7984C24.6983 41.0964 25.9322 42.691 26.5252 44.582H57.7431V4.9987H6.78161C6.14057 4.9987 5.55297 5.26578 5.0188 5.79995C4.48457 6.33418 4.21745 6.92179 4.21745 7.56276V44.582ZM68.3201 55.4794C70.1951 55.4794 71.7856 54.8264 73.0917 53.5204C74.3978 52.2143 75.0508 50.6237 75.0508 48.7487C75.0508 46.8737 74.3978 45.2832 73.0917 43.9771C71.7856 42.671 70.1951 42.018 68.3201 42.018C66.4451 42.018 64.8545 42.671 63.5484 43.9771C62.2423 45.2832 61.5893 46.8737 61.5893 48.7487C61.5893 50.6237 62.2423 52.2143 63.5484 53.5204C64.8545 54.8264 66.4451 55.4794 68.3201 55.4794ZM61.9098 36.2487H81.5412L69.2816 20.0628H61.9098V36.2487Z" fill="#DC2A1F"/>
</svg>
