<svg width="28" height="28" viewBox="0 0 28 28" fill="none" xmlns="http://www.w3.org/2000/svg">
<path d="M4 23.5H26C26.5523 23.5 27 23.9477 27 24.5C27 25.0523 26.5523 25.5 26 25.5H3C2.44772 25.5 2 25.0523 2 24.5V4C2 3.44772 2.44772 3 3 3C3.55228 3 4 3.44772 4 4V23.5Z" fill="#B0B0B0"/>
<path opacity="0.5" d="M9.16192 17.2945C8.68976 17.8752 7.89872 17.9046 7.39508 17.3602C6.89144 16.8158 6.86592 15.9038 7.33808 15.3232L12.0256 9.55848C12.4822 8.9969 13.241 8.9482 13.7489 9.44787L17.4485 13.0877L22.2689 6.04822C22.6966 5.4235 23.4827 5.31688 24.0245 5.81008C24.5664 6.30328 24.6588 7.20952 24.2311 7.83424L18.6061 16.0489C18.1667 16.6905 17.3529 16.7828 16.8136 16.2522L13.0335 12.5332L9.16192 17.2945Z" fill="#DADADA"/>
</svg>
