<svg width="28" height="28" viewBox="0 0 28 28" fill="none" xmlns="http://www.w3.org/2000/svg">
<path opacity="0.3" d="M19.9125 16.3332C18.1601 16.3332 16.7395 14.7662 16.7395 12.8332C16.7395 10.9002 18.1601 9.33319 19.9125 9.33319C21.6648 9.33319 23.0854 10.9002 23.0854 12.8332C23.0854 14.7662 21.6648 16.3332 19.9125 16.3332Z" fill="#DADADA"/>
<path opacity="0.3" d="M10.3932 12.8333C8.0567 12.8333 6.1626 10.744 6.1626 8.16667C6.1626 5.58934 8.0567 3.5 10.3932 3.5C12.7297 3.5 14.6238 5.58934 14.6238 8.16667C14.6238 10.744 12.7297 12.8333 10.3932 12.8333Z" fill="#DADADA"/>
<path fill-rule="evenodd" clip-rule="evenodd" d="M21.605 24.5C21.605 24.5 21.605 24.5 21.605 24.5C21.605 21.8739 20.8184 19.4505 19.491 17.5007C23.0937 17.5443 26.0354 19.5536 26.2568 23.8C26.2657 23.971 26.2568 24.5 25.6829 24.5H21.605Z" fill="#DADADA"/>
<path d="M0.875689 23.5659C1.28564 17.9977 5.38261 15.1668 10.3762 15.1668C15.4401 15.1668 19.6006 17.8422 19.9105 23.5668C19.9228 23.7949 19.9105 24.5001 19.116 24.5001C15.1968 24.5001 9.37292 24.5001 1.64444 24.5001C1.37919 24.5001 0.853359 23.8692 0.875689 23.5659Z" fill="#B0B0B0"/>
</svg>
