<svg width="26" height="33" viewBox="0 0 26 33" fill="none" xmlns="http://www.w3.org/2000/svg">
<path fill-rule="evenodd" clip-rule="evenodd" d="M1.16365 31.5754C1.75759 32.1615 2.48316 32.4545 3.34036 32.4545H22.6597C23.5169 32.4545 24.2424 32.1615 24.8364 31.5754C25.4303 30.9892 25.7273 30.2732 25.7273 29.4273V11.2756C25.7273 10.4297 25.4303 9.71371 24.8364 9.12758C24.2424 8.54146 23.5169 8.24839 22.6597 8.24839H19.3636V6.91629C19.3636 5.18152 18.7425 3.70118 17.5002 2.47525C16.258 1.24933 14.7579 0.636368 13 0.636368C11.2421 0.636368 9.74204 1.24933 8.4998 2.47525C7.25753 3.70118 6.63639 5.18152 6.63639 6.91629V8.24839H3.34036C2.48316 8.24839 1.75759 8.54146 1.16365 9.12758C0.569706 9.71371 0.272736 10.4297 0.272736 11.2756V29.4273C0.272736 30.2732 0.569706 30.9892 1.16365 31.5754ZM23.0187 29.7816C22.9099 29.8889 22.7902 29.9426 22.6597 29.9426H3.34036C3.2098 29.9426 3.09012 29.8889 2.98132 29.7816C2.87254 29.6742 2.81816 29.5561 2.81816 29.4273V11.2756C2.81816 11.1468 2.87254 11.0287 2.98132 10.9213C3.09012 10.814 3.2098 10.7603 3.34036 10.7603H6.63639V15.2515H9.18177V10.7603H16.8182V15.2515H19.3636V10.7603H22.6597C22.7902 10.7603 22.9099 10.814 23.0187 10.9213C23.1275 11.0287 23.1819 11.1468 23.1819 11.2756V29.4273C23.1819 29.5561 23.1275 29.6742 23.0187 29.7816ZM16.8182 6.91629V8.24839H9.18177V6.91629C9.18177 5.8664 9.55218 4.97593 10.293 4.24489C11.0338 3.51383 11.9361 3.14829 13 3.14829C14.0639 3.14829 14.9662 3.51383 15.707 4.24489C16.4478 4.97593 16.8182 5.8664 16.8182 6.91629Z" fill="#282B32"/>
</svg>
