<svg width="34" height="34" viewBox="0 0 34 34" fill="none" xmlns="http://www.w3.org/2000/svg">
<path fill-rule="evenodd" clip-rule="evenodd" d="M17 19.2113C20.5145 19.2113 23.3636 16.4392 23.3636 13.0197C23.3636 9.60011 20.5145 6.82801 17 6.82801C13.4854 6.82801 10.6364 9.60011 10.6364 13.0197C10.6364 16.4392 13.4854 19.2113 17 19.2113ZM17 16.5577C19.0083 16.5577 20.6364 14.9737 20.6364 13.0197C20.6364 11.0656 19.0083 9.48158 17 9.48158C14.9917 9.48158 13.3636 11.0656 13.3636 13.0197C13.3636 14.9737 14.9917 16.5577 17 16.5577Z" fill="#282B32"/>
<path fill-rule="evenodd" clip-rule="evenodd" d="M17 32.4791C26.0374 32.4791 33.3636 25.3509 33.3636 16.5577C33.3636 7.76461 26.0374 0.636368 17 0.636368C7.9626 0.636368 0.636353 7.76461 0.636353 16.5577C0.636353 25.3509 7.9626 32.4791 17 32.4791ZM26.5336 26.0442C29.0651 23.6354 30.6364 20.2751 30.6364 16.5577C30.6364 9.23013 24.5311 3.28993 17 3.28993C9.46883 3.28993 3.36363 9.23013 3.36363 16.5577C3.36363 20.275 4.93482 23.6353 7.46631 26.0441C9.79811 23.4808 13.205 21.8649 16.9999 21.8649C20.7948 21.8649 24.2018 23.4809 26.5336 26.0442ZM24.4 27.7039C22.5708 25.7469 19.9328 24.5184 16.9999 24.5184C14.067 24.5184 11.4291 25.7469 9.59985 27.7038C11.7312 29.0462 14.2721 29.8256 17 29.8256C19.7279 29.8256 22.2687 29.0462 24.4 27.7039Z" fill="#282B32"/>
<path d="M29.5975 33.3636L29.6904 33.2992L29.6952 33.3636H29.5975Z" fill="#282B32"/>
</svg>
