<svg width="15" height="15" viewBox="0 0 15 15" fill="none" xmlns="http://www.w3.org/2000/svg">
<path d="M7.58651 11.9236C8.09971 11.9236 8.52181 11.5015 8.52181 10.9883C8.52181 10.4743 8.09563 10.0706 7.58651 10.0706C7.07661 10.0706 6.66886 10.4784 6.66886 10.9883C6.66886 11.4974 7.07256 11.9236 7.58651 11.9236ZM6.91592 9.20593H8.29239C8.29239 8.82946 8.33945 8.52663 8.43357 8.29746C8.52769 8.06781 8.76886 7.76475 9.1571 7.38828C9.46298 7.09416 9.70416 6.80875 9.88063 6.53205C10.0571 6.25581 10.1453 5.91769 10.1453 5.51769C10.1453 4.8471 9.90416 4.33534 9.4218 3.9824C8.93945 3.62946 8.36887 3.45299 7.71004 3.45299C7.03945 3.45299 6.48651 3.63534 6.05122 4.00005C5.61592 4.36475 5.31592 4.80005 5.15122 5.30593L6.40416 5.80005C6.57231 5.19471 7.05111 4.74122 7.69239 4.74122C8.21925 4.74122 8.73357 5.08865 8.73357 5.65887C8.73357 6.14464 8.38333 6.54834 8.02769 6.84122C7.52181 7.28828 7.21004 7.63534 7.09239 7.8824C6.97475 8.12946 6.91592 8.57063 6.91592 9.20593ZM7.63945 14.8883C5.7398 14.8883 3.88505 14.1339 2.53945 12.7883C1.19386 11.4427 0.439453 9.58793 0.439453 7.68828C0.439453 5.78863 1.19386 3.93388 2.53945 2.58828C3.88505 1.24269 5.7398 0.488281 7.63945 0.488281C9.5391 0.488281 11.3939 1.24269 12.7395 2.58828C14.085 3.93387 14.8395 5.78863 14.8395 7.68828C14.8395 9.58793 14.085 11.4427 12.7395 12.7883C11.3939 14.1339 9.5391 14.8883 7.63945 14.8883ZM7.63945 13.2824C9.20416 13.2824 10.5277 12.7412 11.61 11.6589C12.6924 10.5765 13.2336 9.25299 13.2336 7.68828C13.2336 6.12358 12.6924 4.80005 11.61 3.71769C10.5277 2.63534 9.20416 2.09416 7.63945 2.09416C6.07475 2.09416 4.75122 2.63534 3.66886 3.71769C2.58651 4.80005 2.04534 6.12358 2.04534 7.68828C2.04534 9.25299 2.58651 10.5765 3.66886 11.6589C4.75122 12.7412 6.07475 13.2824 7.63945 13.2824Z" fill="#B0B7BF"/>
</svg>
