<svg width="29" height="29" viewBox="0 0 29 29" fill="none" xmlns="http://www.w3.org/2000/svg">
<path fill-rule="evenodd" clip-rule="evenodd" d="M10.4545 0.454544C15.9774 0.454544 20.4545 4.9317 20.4545 10.4545C20.4545 12.7242 19.6984 14.8172 18.4243 16.4955L28.7752 26.8464L26.8467 28.7749L16.4959 18.424C14.8176 19.6983 12.7244 20.4545 10.4545 20.4545C4.93168 20.4545 0.454529 15.9774 0.454529 10.4545C0.454529 4.9317 4.93168 0.454544 10.4545 0.454544ZM10.4545 3.18182C14.4711 3.18182 17.7273 6.43793 17.7273 10.4545C17.7273 14.4712 14.4711 17.7273 10.4545 17.7273C6.43791 17.7273 3.1818 14.4712 3.1818 10.4545C3.1818 6.43793 6.43791 3.18182 10.4545 3.18182Z" fill="#282B32"/>
</svg>
