<svg width="14" height="21" viewBox="0 0 14 21" fill="none" xmlns="http://www.w3.org/2000/svg">
<path d="M4.78687 9.54883H3.2832L3.77269 16.5488H5.27635L4.78687 9.54883Z" fill="#B0B7BF"/>
<path d="M6.25007 9.54883H7.75007L7.75007 16.5488H6.25007V9.54883Z" fill="#B0B7BF"/>
<path d="M9.21406 9.54883H10.7177L10.2282 16.5488H8.72458L9.21406 9.54883Z" fill="#B0B7BF"/>
<path fill-rule="evenodd" clip-rule="evenodd" d="M4.25 2.04883C4.25 1.08233 5.0335 0.298828 6 0.298828H8C8.9665 0.298828 9.75 1.08233 9.75 2.04883V3.04883H11.4375C12.3553 3.04883 13.1552 3.67342 13.3778 4.56376L13.9014 6.65791C13.9659 6.91593 13.9783 7.18422 13.9378 7.44709L12.26 18.3529C12.1099 19.3286 11.2704 20.0488 10.2833 20.0488H3.71493C2.72779 20.0488 1.88829 19.3286 1.73819 18.3529L0.060366 7.44709C0.0199246 7.18422 0.0323192 6.91593 0.0968245 6.65791L0.620362 4.56376C0.842946 3.67342 1.64291 3.04883 2.56065 3.04883H4.25V2.04883ZM8.25 2.04883V3.04883H5.75V2.04883C5.75 1.91076 5.86193 1.79883 6 1.79883H8C8.13807 1.79883 8.25 1.91076 8.25 2.04883ZM12.3661 7.79883L10.7774 18.1249C10.7399 18.3688 10.53 18.5488 10.2833 18.5488H3.71493C3.46815 18.5488 3.25827 18.3688 3.22075 18.1249L1.63213 7.79883H12.3661ZM12.2654 6.29883L11.9226 4.92756C11.867 4.70498 11.667 4.54883 11.4375 4.54883H2.56065C2.33121 4.54883 2.13122 4.70498 2.07558 4.92756L1.73276 6.29883H12.2654Z" fill="#B0B7BF"/>
</svg>
