<svg width="24" height="18" viewBox="0 0 24 18" fill="none" xmlns="http://www.w3.org/2000/svg">
<path fill-rule="evenodd" clip-rule="evenodd" d="M3.87157 2.20451C3.91399 2.20152 3.95682 2.2 4 2.2H20C20.0432 2.2 20.086 2.20152 20.1284 2.20451L12 9.5201L3.87157 2.20451ZM2.22753 3.68467C2.20944 3.78706 2.2 3.89243 2.2 4V14C2.2 14.9941 3.00589 15.8 4 15.8H20C20.9941 15.8 21.8 14.9941 21.8 14V4C21.8 3.89243 21.7906 3.78706 21.7725 3.68467L12.7359 11.8176L12 12.4799L11.2641 11.8176L2.22753 3.68467ZM0 4C0 1.79086 1.79086 0 4 0H20C22.2091 0 24 1.79086 24 4V14C24 16.2091 22.2091 18 20 18H4C1.79086 18 0 16.2091 0 14V4Z" fill="#282B32"/>
</svg>
