<svg width="18" height="23" viewBox="0 0 18 23" fill="none" xmlns="http://www.w3.org/2000/svg">
<path fill-rule="evenodd" clip-rule="evenodd" d="M17.364 9.0902C17.364 4.47109 13.6195 0.726562 9.00035 0.726562C4.38125 0.726562 0.636719 4.47109 0.636719 9.0902C0.636719 13.5667 3.45431 18.1901 8.29569 22.2866L9.00035 22.8829L9.70502 22.2866C14.5464 18.1901 17.364 13.5667 17.364 9.0902ZM9.00035 2.90838C12.4145 2.90838 15.1822 5.67608 15.1822 9.0902C15.1822 12.4609 13.1404 16.2932 9.00036 20.0073C4.86027 16.2932 2.81854 12.4609 2.81854 9.0902C2.81854 5.67608 5.58623 2.90838 9.00035 2.90838Z" fill="#282B32"/>
<path d="M11 8.99951C11 10.1041 10.1046 10.9995 9 10.9995C7.89543 10.9995 7 10.1041 7 8.99951C7 7.89494 7.89543 6.99951 9 6.99951C10.1046 6.99951 11 7.89494 11 8.99951Z" fill="#282B32"/>
</svg>
