<svg width="22" height="22" viewBox="0 0 22 22" fill="none" xmlns="http://www.w3.org/2000/svg">
<path fill-rule="evenodd" clip-rule="evenodd" d="M11.0009 19.7272C15.8208 19.7272 19.7282 15.8199 19.7282 10.9999C19.7282 6.17997 15.8208 2.27264 11.0009 2.27264C6.18095 2.27264 2.27362 6.17997 2.27362 10.9999C2.27362 15.8199 6.18095 19.7272 11.0009 19.7272ZM11.0009 21.909C17.0258 21.909 21.91 17.0248 21.91 10.9999C21.91 4.97499 17.0258 0.0908203 11.0009 0.0908203C4.97596 0.0908203 0.0917969 4.97499 0.0917969 10.9999C0.0917969 17.0248 4.97596 21.909 11.0009 21.909Z" fill="#282B32"/>
<path fill-rule="evenodd" clip-rule="evenodd" d="M12.8191 5.909V13.909H7.00089V11.7272H10.6373V5.909H12.8191Z" fill="#282B32"/>
</svg>
