<svg width="256" height="256" viewBox="0 0 256 256" fill="none" xmlns="http://www.w3.org/2000/svg">
<rect width="256" height="256" fill="white"/>
<g clip-path="url(#clip0_3349_35736)">
<path d="M0 128H1.83365H6.4944H249.777H254.37H256V256H0V128Z" fill="white"/>
<path d="M0 128H1.83365H6.4944L6.48861 244.359L249.746 244.338C249.942 205.637 249.554 166.662 249.777 128H254.37H256V256H0V128Z" fill="#E31F00"/>
<path d="M187.751 200.907C190.438 200.784 194.253 200.84 196.957 200.915L196.978 235.719L192.305 235.724L182.851 235.717C183.776 233.449 183.529 229.165 183.528 226.6L183.513 211.953C183.509 209.761 183.49 207.563 183.524 205.371C183.568 202.53 185.053 201.261 187.751 200.907Z" fill="white"/>
<path d="M117.008 147.178C120.041 146.977 123.26 147.159 126.265 147.07C133.756 146.791 139.987 147.129 145.947 152.184C153.399 158.506 151.873 167.302 151.868 175.975L151.874 198.71L151.88 213.623C151.88 217.24 152.224 221.421 150.935 224.806C148 232.513 141.02 236.359 133.026 236.876C130.374 237.051 127.079 236.896 124.326 236.954C116.83 237.11 110.366 237.159 104.317 232.131C96.8044 225.887 98.0826 217.847 98.0821 209.145L98.0836 189.748L98.0872 173.59C98.0937 166.115 97.25 159.356 102.7 153.421C106.676 149.093 111.258 147.573 117.008 147.178Z" fill="#E31F00"/>
<path d="M117.379 157.206C122.619 157.123 135.092 156.084 138.451 159.611C140.747 161.966 140.952 164.493 140.924 167.636C140.765 185.317 141.334 203.117 140.666 220.771C140.559 223.582 136.261 226.838 133.313 226.875C127.65 226.939 121.571 227.18 116.012 226.75C111.872 226.43 108.83 222.323 109.056 218.332C109.174 216.252 109.032 213.754 109.03 211.634L109.019 195.637L109.021 175.821C109.024 171.935 108.899 167.96 109.229 164.095C109.599 159.773 113.504 157.705 117.379 157.206Z" fill="white"/>
<path d="M226.983 200.916C227.871 200.874 228.758 200.854 229.646 200.857C233.731 200.87 237.407 201.171 237.116 206.21C237.073 206.944 237.107 207.898 237.11 208.645C237.126 211.693 237.123 214.741 237.1 217.789L231.653 217.792C228.227 217.821 224.799 217.806 221.374 217.749L221.367 209.835C221.365 208.058 221.274 206.212 221.534 204.456C221.982 201.43 224.487 201.075 226.983 200.916Z" fill="white"/>
</g>
<path d="M5 0H251V128H249.437H6.73019H5V0Z" fill="#DD2A20"/>
<path d="M5 0H251V128H249.437L249.431 3.30902L6.70263 3.29811C6.91762 44.5512 6.71979 86.6682 6.73019 128H5V0Z" fill="#FEFEFE"/>
<path d="M222.418 18.068C225.286 17.9673 229.221 18.2509 231.949 18C232.041 22.858 231.989 28.0947 231.948 32.9653C230.716 32.8831 229.224 32.9034 227.97 32.8913C223.841 32.8627 217.285 34.2793 218.064 27.664C218.571 23.3545 216.196 18.3019 222.418 18.068Z" fill="#DD2A20"/>
<path d="M95.1886 13.0519L108.994 13L108.959 52.5029C108.869 66.5183 118.689 64.7441 128.903 64.7358L147.278 64.7124L147.307 13.1661C151.751 13.0095 156.454 13.0886 160.92 13.0959L160.928 70.1729C160.928 79.5998 161.163 89.2479 160.785 98.6448C160.397 108.28 152.876 114.702 144.689 117.625C140.35 118.916 136.638 119.013 132.182 118.968C121.151 118.855 109.622 120.357 101.123 111.461C95.8551 105.948 95.0341 101.077 95 93.7994C99.5886 93.7092 104.309 93.7889 108.909 93.8142C108.891 94.1841 108.876 94.5539 108.864 94.9241C108.439 108.041 119.038 106.527 128.104 106.378C131.819 106.317 136.619 106.902 140.161 105.993C141.817 105.552 143.333 104.671 144.556 103.439C148.708 99.3114 147.301 83.3467 147.375 76.983C140.049 76.889 132.452 77.0178 125.061 77.0029C115.807 77.225 108.217 76.6938 101.308 69.7015C93.4141 61.7115 95.1849 51.4664 95.1901 40.9236L95.1886 13.0519Z" fill="#FEFEFE"/>
<defs>
<clipPath id="clip0_3349_35736">
<rect width="256" height="128" fill="white" transform="translate(0 128)"/>
</clipPath>
</defs>
</svg>
