<svg width="24" height="24" viewBox="0 0 24 24" fill="none" xmlns="http://www.w3.org/2000/svg">
<path fill-rule="evenodd" clip-rule="evenodd" d="M5.30381 20.5026C5.63981 20.8342 6.05027 21 6.5352 21H17.4644C17.9493 21 18.3598 20.8342 18.6958 20.5026C19.0318 20.171 19.1998 19.766 19.1998 19.2874V9.01879C19.1998 8.54024 19.0318 8.13518 18.6958 7.8036C18.3598 7.47202 17.9493 7.30623 17.4644 7.30623H15.5998V6.55264C15.5998 5.57126 15.2484 4.73381 14.5456 4.04028C13.8429 3.34676 12.9943 3 11.9998 3C11.0053 3 10.1567 3.34676 9.45397 4.04028C8.7512 4.73381 8.39982 5.57126 8.39982 6.55264V7.30623H6.5352C6.05027 7.30623 5.63981 7.47202 5.30381 7.8036C4.96781 8.13518 4.7998 8.54024 4.7998 9.01879V19.2874C4.7998 19.766 4.96781 20.171 5.30381 20.5026ZM17.6675 19.4879C17.606 19.5486 17.5383 19.579 17.4644 19.579H6.5352C6.46135 19.579 6.39364 19.5486 6.33209 19.4879C6.27055 19.4271 6.23979 19.3603 6.23979 19.2874V9.01879C6.23979 8.94591 6.27055 8.8791 6.33209 8.81835C6.39364 8.75763 6.46135 8.72726 6.5352 8.72726H8.39982V11.268H9.83977V8.72726H14.1598V11.268H15.5998V8.72726H17.4644C17.5383 8.72726 17.606 8.75763 17.6675 8.81835C17.7291 8.8791 17.7598 8.94591 17.7598 9.01879V19.2874C17.7598 19.3603 17.7291 19.4271 17.6675 19.4879ZM14.1598 6.55264V7.30623H9.83977V6.55264C9.83977 5.9587 10.0493 5.45495 10.4684 5.04139C10.8875 4.62782 11.3979 4.42103 11.9998 4.42103C12.6017 4.42103 13.1121 4.62782 13.5312 5.04139C13.9503 5.45495 14.1598 5.9587 14.1598 6.55264Z" fill="#282B32"/>
</svg>
