<svg width="24" height="24" viewBox="0 0 24 24" fill="none" xmlns="http://www.w3.org/2000/svg">
<path fill-rule="evenodd" clip-rule="evenodd" d="M11.9999 13.2977C14.0618 13.2977 15.7332 11.6714 15.7332 9.66526C15.7332 7.65912 14.0618 6.03282 11.9999 6.03282C9.93804 6.03282 8.26657 7.65912 8.26657 9.66526C8.26657 11.6714 9.93804 13.2977 11.9999 13.2977ZM11.9999 11.7409C13.1781 11.7409 14.1332 10.8116 14.1332 9.66526C14.1332 8.51889 13.1781 7.58958 11.9999 7.58958C10.8217 7.58958 9.86657 8.51889 9.86657 9.66526C9.86657 10.8116 10.8217 11.7409 11.9999 11.7409Z" fill="#282B32"/>
<path fill-rule="evenodd" clip-rule="evenodd" d="M11.9999 21.0815C17.3018 21.0815 21.5999 16.8996 21.5999 11.7409C21.5999 6.58229 17.3018 2.40039 11.9999 2.40039C6.69797 2.40039 2.3999 6.58229 2.3999 11.7409C2.3999 16.8996 6.69797 21.0815 11.9999 21.0815ZM17.5929 17.3063C19.0781 15.8931 19.9999 13.9218 19.9999 11.7409C19.9999 7.44207 16.4182 3.95715 11.9999 3.95715C7.58162 3.95715 3.9999 7.44207 3.9999 11.7409C3.9999 13.9217 4.92167 15.8931 6.40681 17.3063C7.7748 15.8025 9.77354 14.8544 11.9998 14.8544C14.2262 14.8544 16.2249 15.8025 17.5929 17.3063ZM16.3412 18.28C15.2681 17.1319 13.7205 16.4112 11.9998 16.4112C10.2792 16.4112 8.73162 17.1319 7.65849 18.28C8.9089 19.0675 10.3995 19.5247 11.9999 19.5247C13.6003 19.5247 15.0909 19.0675 16.3412 18.28Z" fill="#282B32"/>
<path d="M19.3905 21.6004L19.4449 21.5626L19.4478 21.6004H19.3905Z" fill="#282B32"/>
</svg>
